<svg width="107" height="107" viewBox="0 0 107 107" fill="none" xmlns="http://www.w3.org/2000/svg">
<g clip-path="url(#clip0_255_452)">
<path d="M95.2969 14.0431C94.1472 13.2993 92.8324 12.8494 91.4681 12.7328C90.1038 12.6162 88.7317 12.8365 87.4725 13.3744L46.2106 29.625C45.2337 30.0226 44.1891 30.227 43.1344 30.2269H16.7188C14.5017 30.2269 12.3755 31.1076 10.8078 32.6753C9.24009 34.2429 8.35938 36.3692 8.35938 38.5862V39.255H0V59.3175H8.35938V60.1869C8.41176 62.3689 9.31555 64.444 10.8776 65.9686C12.4396 67.4931 14.536 68.3462 16.7188 68.3456L26.75 89.6119C27.4293 91.0439 28.4986 92.2554 29.8354 93.1071C31.1721 93.9588 32.7219 94.4163 34.3069 94.4269H38.52C40.7254 94.4092 42.8345 93.5207 44.3878 91.9549C45.941 90.3892 46.8126 88.273 46.8125 86.0675V69.1481L87.4725 85.3987C88.4726 85.7967 89.5392 86.001 90.6156 86.0006C92.2856 85.9737 93.9118 85.4626 95.2969 84.5294C96.3968 83.7867 97.3041 82.7928 97.9437 81.6299C98.5833 80.467 98.9368 79.1685 98.975 77.8419V20.9312C98.9689 19.5704 98.6306 18.2317 97.9896 17.0313C97.3487 15.8309 96.4243 14.8051 95.2969 14.0431ZM38.4531 38.5862V60.1869H16.7188V38.5862H38.4531ZM38.4531 86.0675H34.24L26.0144 68.3456H38.4531V86.0675ZM49.2869 61.19C48.4929 60.7842 47.6649 60.4486 46.8125 60.1869V38.1181C47.6568 37.9439 48.4846 37.6978 49.2869 37.3825L90.6156 20.9312V77.6412L49.2869 61.19ZM99.1756 40.9269V57.6456C101.393 57.6456 103.519 56.7649 105.087 55.1972C106.654 53.6295 107.535 51.5033 107.535 49.2862C107.535 47.0692 106.654 44.9429 105.087 43.3753C103.519 41.8076 101.393 40.9269 99.1756 40.9269Z" fill="black"/>
</g>
<defs>
<clipPath id="clip0_255_452">
<rect width="107" height="107" fill="white"/>
</clipPath>
</defs>
</svg>
