<svg width="121" height="121" viewBox="0 0 121 121" fill="none" xmlns="http://www.w3.org/2000/svg">
<path d="M35.2917 70.5833V60.4999H85.7083V70.5833H35.2917ZM35.2917 90.7499V80.6666H70.5833V90.7499H35.2917ZM25.2083 110.917C22.4354 110.917 20.0625 109.93 18.0895 107.957C16.1165 105.984 15.1284 103.61 15.125 100.833V30.2499C15.125 27.477 16.1132 25.1041 18.0895 23.1311C20.0658 21.1581 22.4388 20.1699 25.2083 20.1666H30.25V10.0833H40.3333V20.1666H80.6667V10.0833H90.75V20.1666H95.7917C98.5646 20.1666 100.939 21.1548 102.916 23.1311C104.892 25.1074 105.878 27.4804 105.875 30.2499V100.833C105.875 103.606 104.889 105.981 102.916 107.957C100.943 109.933 98.5679 110.92 95.7917 110.917H25.2083ZM25.2083 100.833H95.7917V50.4166H25.2083V100.833Z" fill="black"/>
</svg>
