<svg width="70" height="70" viewBox="0 0 70 70" fill="none" xmlns="http://www.w3.org/2000/svg">
<path d="M30.3195 10.9771C27.0852 10.9771 24.0926 11.9919 21.6312 13.7192C21.4714 11.2448 20.9058 9.09865 19.8651 7.19862C23.1522 5.37952 26.8571 4.44962 30.6137 4.5008C34.3702 4.55198 38.0484 5.58247 41.2848 7.49045C44.5212 9.39842 47.2037 12.1178 49.0672 15.38C50.9308 18.6421 51.9109 22.334 51.9108 26.091H61.6312C63.6346 26.091 65.5561 26.8865 66.9732 28.3028C68.3903 29.7191 69.187 31.6401 69.1881 33.6436V57.3939C69.1887 58.3871 68.9935 59.3706 68.6137 60.2882C68.2339 61.2058 67.677 62.0396 66.9747 62.7418C66.2725 63.4441 65.4387 64.001 64.5211 64.3808C63.6035 64.7606 62.62 64.9558 61.6268 64.9552H37.8765C35.8722 64.9552 33.9501 64.159 32.5329 62.7418C31.1157 61.3246 30.3195 59.4025 30.3195 57.3983V47.6822C27.3159 47.6838 24.345 47.0588 21.5967 45.8469C21.6543 44.3816 21.683 42.8343 21.683 41.2048V40.9371C21.683 40.216 21.683 39.3868 21.6701 38.4887C24.2074 40.2578 27.2264 41.2059 30.3195 41.2048V33.6479C30.3195 29.4765 33.705 26.091 37.8765 26.091H45.4334C45.4334 22.0825 43.8411 18.2382 41.0067 15.4038C38.1723 12.5694 34.328 10.9771 30.3195 10.9771ZM50.9219 32.5683C49.876 35.8846 48.0461 38.8998 45.5872 41.3587C43.1284 43.8175 40.1132 45.6474 36.7969 46.6933V57.3983C36.7969 57.9942 37.2806 58.4778 37.8765 58.4778H61.6268C61.9132 58.4778 62.1878 58.3641 62.3902 58.1616C62.5927 57.9592 62.7064 57.6846 62.7064 57.3983V33.6479C62.7064 33.3616 62.5927 33.087 62.3902 32.8845C62.1878 32.6821 61.9132 32.5683 61.6268 32.5683H50.9219ZM43.9782 32.5683H37.8765C37.5902 32.5683 37.3156 32.6821 37.1131 32.8845C36.9106 33.087 36.7969 33.3616 36.7969 33.6479V39.7496C39.9473 38.2558 42.4844 35.7187 43.9782 32.5683ZM11.2372 0.721249C11.5956 1.03476 11.8404 1.45797 11.9333 1.92501C12.0262 2.39205 11.9622 2.87671 11.7511 3.30356C11.7127 3.4295 11.6938 3.56056 11.6949 3.6922C11.6949 3.96425 11.764 4.48244 12.4161 5.13018C12.7313 5.44541 12.9731 5.66996 13.2365 5.9161C13.4525 6.11474 13.6813 6.32202 13.9706 6.60702C14.532 7.14248 15.1236 7.77295 15.6548 8.56319C16.7559 10.2171 17.3648 12.2855 17.3648 15.2953C17.3648 18.9788 16.0002 22.1182 13.8713 24.0441L14.1477 24.3637C15.3568 25.8491 16.0607 27.7751 16.5011 29.6751C17.3648 33.432 17.3648 37.9489 17.3648 41.0969V41.2048C17.3648 53.2398 15.7282 60.0669 13.9275 63.9706C13.0206 65.9354 12.0577 67.1877 11.2242 67.9737C10.885 68.2982 10.5114 68.5849 10.1101 68.8287C9.92615 68.9392 9.73417 69.036 9.53581 69.118C9.53581 69.118 9.04784 69.2734 8.72829 69.2734C8.40874 69.2734 7.92078 69.118 7.92078 69.118C7.72241 69.036 7.53044 68.9392 7.34646 68.8287C6.9452 68.5849 6.57163 68.2982 6.23235 67.9737C5.39892 67.1834 4.43596 65.9354 3.52912 63.9706C1.72841 60.0669 0.0917969 53.2398 0.0917969 41.2048V41.0969C0.0917969 37.9446 0.0917971 33.432 0.955447 29.6751C1.39591 27.7751 2.09978 25.8491 3.30889 24.3637C3.39526 24.2543 3.48738 24.1477 3.58526 24.0441C1.45636 22.1182 0.0917969 18.9788 0.0917969 15.2953C0.0917969 13.8876 0.467485 12.2078 0.985674 10.6575C1.50386 9.10729 2.22933 7.49658 3.06707 6.20111C4.06459 4.51699 5.46802 3.10492 6.55622 2.15491C7.15501 1.63285 7.77749 1.13861 8.4217 0.673748L8.6117 0.544201C9.00767 0.280255 9.47974 0.154517 9.95454 0.186535C10.4293 0.218552 10.8803 0.406531 11.2372 0.721249Z" fill="#1C170E"/>
</svg>
