<svg width="70" height="62" viewBox="0 0 70 62" fill="none" xmlns="http://www.w3.org/2000/svg">
<path d="M61.9947 8.20239H52.7863L48.2585 1.41235C48.016 1.04877 47.6874 0.750626 47.3021 0.544342C46.9168 0.338059 46.4865 0.229999 46.0494 0.229736H24.789C24.352 0.229999 23.9217 0.338059 23.5364 0.544342C23.151 0.750626 22.8225 1.04877 22.58 1.41235L18.0488 8.20239H8.84374C6.72927 8.20239 4.70139 9.04236 3.20623 10.5375C1.71107 12.0327 0.871094 14.0606 0.871094 16.175V53.3807C0.871094 55.4952 1.71107 57.5231 3.20623 59.0182C4.70139 60.5134 6.72927 61.3534 8.84374 61.3534H61.9947C64.1092 61.3534 66.1371 60.5134 67.6323 59.0182C69.1274 57.5231 69.9674 55.4952 69.9674 53.3807V16.175C69.9674 14.0606 69.1274 12.0327 67.6323 10.5375C66.1371 9.04236 64.1092 8.20239 61.9947 8.20239ZM47.3782 33.4491C47.3782 35.8144 46.6768 38.1265 45.3628 40.0932C44.0487 42.0598 42.181 43.5926 39.9957 44.4978C37.8105 45.4029 35.406 45.6397 33.0862 45.1783C30.7663 44.7169 28.6355 43.5779 26.963 41.9054C25.2905 40.2329 24.1515 38.102 23.6901 35.7822C23.2286 33.4624 23.4654 31.0578 24.3706 28.8726C25.2757 26.6874 26.8085 24.8197 28.7752 23.5056C30.7418 22.1915 33.054 21.4901 35.4192 21.4901C38.591 21.4901 41.6328 22.7501 43.8755 24.9928C46.1183 27.2356 47.3782 30.2774 47.3782 33.4491Z" fill="#1C170E"/>
</svg>
