<svg width="81" height="81" viewBox="0 0 81 81" fill="none" xmlns="http://www.w3.org/2000/svg">
<path fill-rule="evenodd" clip-rule="evenodd" d="M57.5206 8.73007C57.7534 8.9623 57.9381 9.23818 58.0641 9.54191C58.1902 9.84563 58.255 10.1712 58.255 10.5001C58.255 10.8289 58.1902 11.1545 58.0641 11.4582C57.9381 11.762 57.7534 12.0378 57.5206 12.2701L29.2856 40.5001L57.5206 68.7301C57.99 69.1995 58.2537 69.8362 58.2537 70.5001C58.2537 71.164 57.99 71.8006 57.5206 72.2701C57.0511 72.7395 56.4144 73.0032 55.7506 73.0032C55.0867 73.0032 54.45 72.7395 53.9806 72.2701L23.9806 42.2701C23.7477 42.0378 23.563 41.762 23.437 41.4582C23.311 41.1545 23.2461 40.8289 23.2461 40.5001C23.2461 40.1712 23.311 39.8456 23.437 39.5419C23.563 39.2382 23.7477 38.9623 23.9806 38.7301L53.9806 8.73007C54.2128 8.49726 54.4887 8.31254 54.7924 8.18651C55.0961 8.06048 55.4217 7.99561 55.7506 7.99561C56.0794 7.99561 56.405 8.06048 56.7087 8.18651C57.0125 8.31254 57.2883 8.49726 57.5206 8.73007Z" fill="#204C74"/>
</svg>
