<svg width="81" height="81" viewBox="0 0 81 81" fill="none" xmlns="http://www.w3.org/2000/svg">
<path fill-rule="evenodd" clip-rule="evenodd" d="M23.4794 8.73007C23.2466 8.9623 23.0619 9.23818 22.9359 9.54191C22.8098 9.84563 22.745 10.1712 22.745 10.5001C22.745 10.8289 22.8098 11.1545 22.9359 11.4582C23.0619 11.762 23.2466 12.0378 23.4794 12.2701L51.7144 40.5001L23.4794 68.7301C23.01 69.1995 22.7463 69.8362 22.7463 70.5001C22.7463 71.164 23.01 71.8006 23.4794 72.2701C23.9489 72.7395 24.5856 73.0032 25.2494 73.0032C25.9133 73.0032 26.55 72.7395 27.0194 72.2701L57.0194 42.2701C57.2523 42.0378 57.437 41.762 57.563 41.4582C57.689 41.1545 57.7539 40.8289 57.7539 40.5001C57.7539 40.1712 57.689 39.8456 57.563 39.5419C57.437 39.2382 57.2523 38.9623 57.0194 38.7301L27.0194 8.73007C26.7872 8.49726 26.5113 8.31254 26.2076 8.18651C25.9039 8.06048 25.5783 7.99561 25.2494 7.99561C24.9206 7.99561 24.595 8.06048 24.2913 8.18651C23.9875 8.31254 23.7117 8.49726 23.4794 8.73007Z" fill="#204C74"/>
</svg>
