<svg width="20" height="20" viewBox="0 0 20 20" fill="none" xmlns="http://www.w3.org/2000/svg">
<path d="M12.8971 1.48434C12.8971 1.09067 12.7226 0.713121 12.412 0.434753C12.1013 0.156385 11.68 0 11.2407 0C10.8014 0 10.38 0.156385 10.0694 0.434753C9.75875 0.713121 9.58423 1.09067 9.58423 1.48434V14.22C9.58456 14.7758 9.40093 15.3192 9.05658 15.7815C8.71223 16.2437 8.22262 16.6041 7.64968 16.817C7.07674 17.0299 6.44622 17.0858 5.83785 16.9775C5.22948 16.8693 4.6706 16.6018 4.23191 16.2089C3.79321 15.8159 3.4944 15.3153 3.37328 14.7702C3.25215 14.2251 3.31415 13.66 3.55144 13.1465C3.78872 12.633 4.19062 12.1941 4.70632 11.8853C5.22201 11.5764 5.82832 11.4116 6.44857 11.4116C6.88789 11.4116 7.30921 11.2552 7.61986 10.9769C7.9305 10.6985 8.10502 10.3209 8.10502 9.92727C8.10502 9.53359 7.9305 9.15605 7.61986 8.87768C7.30921 8.59931 6.88789 8.44293 6.44857 8.44293C5.17316 8.44293 3.9264 8.78183 2.86594 9.41678C1.80548 10.0517 0.978947 10.9542 0.490871 12.0101C0.00279397 13.066 -0.124909 14.2279 0.12391 15.3488C0.37273 16.4697 0.986896 17.4994 1.88874 18.3075C2.79059 19.1156 3.93962 19.666 5.19052 19.889C6.44142 20.1119 7.73801 19.9975 8.91633 19.5601C10.0946 19.1228 11.1018 18.3821 11.8104 17.4318C12.5189 16.4816 12.8971 15.3643 12.8971 14.2215V7.63396C14.4451 8.73757 16.3654 9.33734 18.3435 9.33501C18.7829 9.33501 19.2042 9.17863 19.5148 8.90026C19.8255 8.62189 20 8.24435 20 7.85067C20 7.457 19.8255 7.07946 19.5148 6.80109C19.2042 6.52272 18.7829 6.36633 18.3435 6.36633C16.8993 6.36555 15.5145 5.8511 14.4933 4.936C13.4721 4.02089 12.898 2.77997 12.8971 1.48582V1.48434Z" fill="#BABABA"/>
</svg>
