<svg width="170" height="170" viewBox="0 0 170 170" fill="none" xmlns="http://www.w3.org/2000/svg">
<path d="M165.49 148.51C167.744 150.764 169.01 153.822 169.01 157.01C169.01 160.198 167.744 163.256 165.49 165.51C163.235 167.764 160.178 169.031 156.99 169.031C153.801 169.031 150.744 167.764 148.49 165.51L84.9996 102L21.4896 165.49C19.2352 167.744 16.1777 169.011 12.9896 169.011C9.80145 169.011 6.74391 167.744 4.48957 165.49C2.23523 163.236 0.96875 160.178 0.96875 156.99C0.96875 153.802 2.23523 150.744 4.48957 148.49L67.9996 85L4.50956 21.49C2.25522 19.2357 0.98875 16.1781 0.98875 12.99C0.98875 9.80189 2.25522 6.74435 4.50956 4.49001C6.7639 2.23567 9.82144 0.969196 13.0096 0.969196C16.1977 0.969196 19.2552 2.23567 21.5096 4.49001L84.9996 68L148.51 4.48001C150.764 2.22567 153.821 0.959198 157.01 0.959198C160.198 0.959198 163.255 2.22567 165.51 4.48001C167.764 6.73435 169.03 9.79189 169.03 12.98C169.03 16.1681 167.764 19.2257 165.51 21.48L102 85L165.49 148.51Z" fill="#204C74"/>
</svg>
